<svg width="55" height="55" viewBox="0 0 55 55" fill="none" xmlns="http://www.w3.org/2000/svg">
<g clip-path="url(#clip0)">
<path d="M5.85441 26.3875L10.7433 29.7823L13.1034 46.9262L16.3065 51L42.2682 48.2841L45.3027 43.8708L43.1111 26.3875L47.1571 21.1255L48 14.5055L42.2682 8.56458L33.3333 8.56458L27.6015 5L20.3525 6.69742L17.4866 11.9594L9.39464 11.9594L4 18.2399L5.85441 26.3875Z" fill="white"/>
<path d="M13.0831 28.6325L13.914 28.7987L16.2804 45.4852C16.5173 47.156 18.0643 48.3121 19.7278 48.0762L40.6866 45.104C42.3574 44.867 43.5136 43.3201 43.2777 41.6566L40.9113 24.9701L41.6632 24.5794C44.3778 23.1628 45.9437 20.1822 45.5061 17.097C44.9418 13.1178 41.2601 10.3506 37.2809 10.915C36.2183 11.0656 35.2245 11.4383 34.3489 12.011L33.336 12.6705L32.6902 11.6482C31.1665 9.23288 28.3615 7.90379 25.4889 8.31118C22.4037 8.74871 19.9697 11.0899 19.3721 14.0976L19.0712 15.613L17.6818 14.9354C16.3897 14.3112 14.9517 14.0816 13.5007 14.2873C9.52147 14.8517 6.75431 18.5334 7.31862 22.5126C7.75615 25.5978 10.089 28.0255 13.0831 28.6325ZM10.4575 31.0457C6.57941 29.8987 3.63413 26.5786 3.05007 22.4601C2.23737 16.7294 6.22459 11.4244 11.9553 10.6117C13.5235 10.3893 15.082 10.5196 16.5532 10.9838C17.8434 7.377 21.0345 4.68176 24.9551 4.12576C28.6705 3.59886 32.2991 5.09522 34.5833 7.91852C35.5615 7.43593 36.6222 7.11357 37.7287 6.95664C43.4594 6.14394 48.7644 10.1312 49.5771 15.8619C50.1612 19.9803 48.2541 23.9811 44.8489 26.1685L47.1634 42.4885C47.6206 45.7129 45.3755 48.7001 42.151 49.1574L19.4408 52.378C16.2164 52.8353 13.2292 50.5901 12.7719 47.3657L10.4575 31.0457Z" fill="#303133"/>
<path d="M13.3874 46.2767L12.8979 42.8251L45.7871 38.1609L46.2766 41.6125L13.3874 46.2767Z" fill="#303133"/>
<path d="M18.9665 31.0575C18.8657 30.3467 19.3563 29.694 20.0671 29.5932C20.778 29.4924 21.4306 29.9829 21.5314 30.6938L22.1768 35.2446C22.2776 35.9555 21.7871 36.6081 21.0762 36.7089C20.3654 36.8098 19.7127 36.3192 19.6119 35.6084L18.9665 31.0575Z" fill="#303133"/>
<path d="M26.759 31.4999C26.6582 30.789 27.1488 30.1364 27.8596 30.0356C28.5704 29.9348 29.2231 30.4253 29.3239 31.1361L29.9693 35.687C30.0701 36.3978 29.5795 37.0505 28.8687 37.1513C28.1579 37.2521 27.5042 36.7542 27.4034 36.0434L26.759 31.4999Z" fill="#303133"/>
<path d="M34.1213 28.9084C34.0205 28.1975 34.5111 27.5449 35.2219 27.444C35.9327 27.3432 36.5854 27.8338 36.6862 28.5446L37.3316 33.0955C37.4324 33.8063 36.9419 34.459 36.231 34.5598C35.5202 34.6606 34.8675 34.17 34.7667 33.4592L34.1213 28.9084Z" fill="#303133"/>
</g>
<defs>
<clipPath id="clip0">
<rect x="0.933105" y="7.53244" width="47" height="47" transform="rotate(-8.07157 0.933105 7.53244)" fill="white"/>
</clipPath>
</defs>
</svg>
