<svg width="59" height="44" viewBox="0 0 59 44" fill="none" xmlns="http://www.w3.org/2000/svg">
<g filter="url(#filter0_d)">
<mask id="path-1-outside-1" maskUnits="userSpaceOnUse" x="-4.07107" y="-4.1127" width="62.2254" height="62.2254" fill="black">
<rect fill="white" x="-4.07107" y="-4.1127" width="62.2254" height="62.2254"/>
<path fill-rule="evenodd" clip-rule="evenodd" d="M7.42105 22.5789C4.97937 25.0206 4.97937 28.9794 7.42105 31.4211C9.86273 33.8627 13.8215 33.8627 16.2632 31.421L27 20.6842L37.7368 31.421C40.1785 33.8627 44.1373 33.8627 46.579 31.421C49.0206 28.9794 49.0206 25.0206 46.5789 22.5789L31.4211 7.42105C29.1295 5.1295 25.5017 4.9886 23.0458 6.99834C22.9051 7.11356 22.7681 7.23584 22.6355 7.36519C22.6166 7.38366 22.5977 7.40229 22.5789 7.42105L7.42105 22.5789Z"/>
</mask>
<path fill-rule="evenodd" clip-rule="evenodd" d="M7.42105 22.5789C4.97937 25.0206 4.97937 28.9794 7.42105 31.4211C9.86273 33.8627 13.8215 33.8627 16.2632 31.421L27 20.6842L37.7368 31.421C40.1785 33.8627 44.1373 33.8627 46.579 31.421C49.0206 28.9794 49.0206 25.0206 46.5789 22.5789L31.4211 7.42105C29.1295 5.1295 25.5017 4.9886 23.0458 6.99834C22.9051 7.11356 22.7681 7.23584 22.6355 7.36519C22.6166 7.38366 22.5977 7.40229 22.5789 7.42105L7.42105 22.5789Z" fill="#A0D7D4"/>
<path d="M27 20.6842L30.5355 17.1487L27 13.6131L23.4645 17.1487L27 20.6842ZM37.7368 31.421L41.2724 27.8855L37.7368 31.421ZM46.5789 22.5789L50.1145 19.0434L46.5789 22.5789ZM31.4211 7.42105L27.8855 10.9566L27.8855 10.9566L31.4211 7.42105ZM23.0458 6.99834L26.2124 10.8678L26.2124 10.8678L23.0458 6.99834ZM22.6355 7.36519L19.1443 3.78587L19.1443 3.78587L22.6355 7.36519ZM10.9566 27.8855C10.4675 27.3965 10.4675 26.6035 10.9566 26.1145L3.88552 19.0434C-0.508781 23.4377 -0.508784 30.5623 3.88552 34.9566L10.9566 27.8855ZM12.7276 27.8855C12.2386 28.3746 11.4456 28.3746 10.9566 27.8855L3.88552 34.9566C8.27983 39.3509 15.4044 39.3509 19.7987 34.9566L12.7276 27.8855ZM23.4645 17.1487L12.7276 27.8855L19.7987 34.9566L30.5355 24.2197L23.4645 17.1487ZM41.2724 27.8855L30.5355 17.1487L23.4645 24.2197L34.2013 34.9566L41.2724 27.8855ZM43.0434 27.8855C42.5544 28.3746 41.7614 28.3746 41.2724 27.8855L34.2013 34.9566C38.5956 39.3509 45.7202 39.3509 50.1145 34.9566L43.0434 27.8855ZM43.0434 26.1145C43.5325 26.6035 43.5325 27.3965 43.0434 27.8855L50.1145 34.9566C54.5088 30.5623 54.5088 23.4377 50.1145 19.0434L43.0434 26.1145ZM27.8855 10.9566L43.0434 26.1145L50.1145 19.0434L34.9566 3.88551L27.8855 10.9566ZM26.2124 10.8678C26.7002 10.4687 27.4287 10.4997 27.8855 10.9566L34.9566 3.88551C30.8303 -0.240741 24.3033 -0.491474 19.8793 3.12886L26.2124 10.8678ZM26.1267 10.9445C26.1552 10.9167 26.1838 10.8912 26.2124 10.8678L19.8793 3.12886C19.6263 3.33589 19.381 3.55497 19.1443 3.78587L26.1267 10.9445ZM26.1145 10.9566C26.1186 10.9525 26.1226 10.9485 26.1267 10.9445L19.1443 3.78587C19.1105 3.81885 19.0769 3.85207 19.0434 3.88552L26.1145 10.9566ZM10.9566 26.1145L26.1145 10.9566L19.0434 3.88552L3.88552 19.0434L10.9566 26.1145Z" fill="#303133" mask="url(#path-1-outside-1)"/>
</g>
<defs>
<filter id="filter0_d" x="0.589844" y="0.589935" width="57.8204" height="42.6624" filterUnits="userSpaceOnUse" color-interpolation-filters="sRGB">
<feFlood flood-opacity="0" result="BackgroundImageFix"/>
<feColorMatrix in="SourceAlpha" type="matrix" values="0 0 0 0 0 0 0 0 0 0 0 0 0 0 0 0 0 0 127 0"/>
<feOffset dx="5" dy="5"/>
<feColorMatrix type="matrix" values="0 0 0 0 0 0 0 0 0 0 0 0 0 0 0 0 0 0 0.14 0"/>
<feBlend mode="normal" in2="BackgroundImageFix" result="effect1_dropShadow"/>
<feBlend mode="normal" in="SourceGraphic" in2="effect1_dropShadow" result="shape"/>
</filter>
</defs>
</svg>
