<svg width="59" height="44" viewBox="0 0 59 44" fill="none" xmlns="http://www.w3.org/2000/svg">
<g filter="url(#filter0_d)">
<mask id="path-1-outside-1" maskUnits="userSpaceOnUse" x="-4.15433" y="-19.1127" width="62.2254" height="62.2254" fill="black">
<rect fill="white" x="-4.15433" y="-19.1127" width="62.2254" height="62.2254"/>
<path fill-rule="evenodd" clip-rule="evenodd" d="M46.5789 16.4211C49.0206 13.9794 49.0206 10.0206 46.5789 7.57895C44.1373 5.13727 40.1785 5.13727 37.7368 7.57895L27 18.3158L16.2632 7.57895C13.8215 5.13727 9.86273 5.13727 7.42105 7.57895C4.97937 10.0206 4.97937 13.9794 7.42105 16.4211L22.5789 31.5789C24.8705 33.8705 28.4983 34.0114 30.9542 32.0017C31.0949 31.8864 31.2319 31.7642 31.3645 31.6348C31.3834 31.6163 31.4023 31.5977 31.4211 31.5789L46.5789 16.4211Z"/>
</mask>
<path fill-rule="evenodd" clip-rule="evenodd" d="M46.5789 16.4211C49.0206 13.9794 49.0206 10.0206 46.5789 7.57895C44.1373 5.13727 40.1785 5.13727 37.7368 7.57895L27 18.3158L16.2632 7.57895C13.8215 5.13727 9.86273 5.13727 7.42105 7.57895C4.97937 10.0206 4.97937 13.9794 7.42105 16.4211L22.5789 31.5789C24.8705 33.8705 28.4983 34.0114 30.9542 32.0017C31.0949 31.8864 31.2319 31.7642 31.3645 31.6348C31.3834 31.6163 31.4023 31.5977 31.4211 31.5789L46.5789 16.4211Z" fill="#A0D7D4"/>
<path d="M46.5789 16.4211L50.1145 19.9566L46.5789 16.4211ZM27 18.3158L23.4645 21.8513L27 25.3869L30.5355 21.8513L27 18.3158ZM16.2632 7.57895L12.7276 11.1145L16.2632 7.57895ZM7.42105 16.4211L3.88552 19.9566L7.42105 16.4211ZM22.5789 31.5789L26.1145 28.0434L26.1145 28.0434L22.5789 31.5789ZM30.9542 32.0017L27.7876 28.1322L27.7876 28.1322L30.9542 32.0017ZM31.3645 31.6348L34.8557 35.2141L34.8557 35.2141L31.3645 31.6348ZM31.4211 31.5789L27.8855 28.0434L31.4211 31.5789ZM43.0434 11.1145C43.5325 11.6035 43.5325 12.3965 43.0434 12.8855L50.1145 19.9566C54.5088 15.5623 54.5088 8.43772 50.1145 4.04341L43.0434 11.1145ZM41.2724 11.1145C41.7614 10.6254 42.5544 10.6254 43.0434 11.1145L50.1145 4.04341C45.7202 -0.350893 38.5956 -0.350881 34.2013 4.04342L41.2724 11.1145ZM30.5355 21.8513L41.2724 11.1145L34.2013 4.04342L23.4645 14.7803L30.5355 21.8513ZM12.7276 11.1145L23.4645 21.8513L30.5355 14.7803L19.7987 4.04342L12.7276 11.1145ZM10.9566 11.1145C11.4456 10.6254 12.2386 10.6254 12.7276 11.1145L19.7987 4.04342C15.4044 -0.350884 8.27982 -0.350886 3.88551 4.04342L10.9566 11.1145ZM10.9566 12.8855C10.4675 12.3965 10.4675 11.6035 10.9566 11.1145L3.88551 4.04342C-0.508797 8.43773 -0.508775 15.5623 3.88552 19.9566L10.9566 12.8855ZM26.1145 28.0434L10.9566 12.8855L3.88552 19.9566L19.0434 35.1145L26.1145 28.0434ZM27.7876 28.1322C27.2998 28.5313 26.5713 28.5003 26.1145 28.0434L19.0434 35.1145C23.1697 39.2407 29.6967 39.4915 34.1207 35.8711L27.7876 28.1322ZM27.8733 28.0555C27.8448 28.0833 27.8162 28.1088 27.7876 28.1322L34.1207 35.8711C34.3737 35.6641 34.619 35.445 34.8557 35.2141L27.8733 28.0555ZM27.8855 28.0434C27.8814 28.0475 27.8774 28.0515 27.8733 28.0555L34.8557 35.2141C34.8895 35.1811 34.9231 35.1479 34.9566 35.1145L27.8855 28.0434ZM43.0434 12.8855L27.8855 28.0434L34.9566 35.1145L50.1145 19.9566L43.0434 12.8855Z" fill="#303133" mask="url(#path-1-outside-1)"/>
</g>
<defs>
<filter id="filter0_d" x="0.589844" y="0.747696" width="57.8204" height="42.6624" filterUnits="userSpaceOnUse" color-interpolation-filters="sRGB">
<feFlood flood-opacity="0" result="BackgroundImageFix"/>
<feColorMatrix in="SourceAlpha" type="matrix" values="0 0 0 0 0 0 0 0 0 0 0 0 0 0 0 0 0 0 127 0"/>
<feOffset dx="5" dy="5"/>
<feColorMatrix type="matrix" values="0 0 0 0 0 0 0 0 0 0 0 0 0 0 0 0 0 0 0.14 0"/>
<feBlend mode="normal" in2="BackgroundImageFix" result="effect1_dropShadow"/>
<feBlend mode="normal" in="SourceGraphic" in2="effect1_dropShadow" result="shape"/>
</filter>
</defs>
</svg>
